HIERARCHY
ROOT Hips
{
	OFFSET -0.001795 -0.223333 0.028219
	CHANNELS 6 Xposition Yposition Zposition Zrotation Yrotation Xrotation 
	JOINT LeftUpLeg
	{
		OFFSET 0.069520 -0.091406 -0.006815
		CHANNELS 3 Zrotation Yrotation Xrotation
		JOINT LeftLeg
		{
			OFFSET 0.034277 -0.375199 -0.004496
			CHANNELS 3 Zrotation Yrotation Xrotation
			JOINT LeftFoot
			{
				OFFSET -0.013596 -0.397961 -0.043693
				CHANNELS 3 Zrotation Yrotation Xrotation
				JOINT LeftToe
				{
					OFFSET 0.026358 -0.055791 0.119288
					CHANNELS 3 Zrotation Yrotation Xrotation
					End Site
					{
						OFFSET 0.000000 0.000000 0.000000
					}
				}
			}
		}
	}
	JOINT RightUpLeg
	{
		OFFSET -0.067670 -0.090522 -0.004320
		CHANNELS 3 Zrotation Yrotation Xrotation
		JOINT RightLeg
		{
			OFFSET -0.038290 -0.382569 -0.008850
			CHANNELS 3 Zrotation Yrotation Xrotation
			JOINT RightFoot
			{
				OFFSET 0.015774 -0.398415 -0.042312
				CHANNELS 3 Zrotation Yrotation Xrotation
				JOINT RightToe
				{
					OFFSET -0.025372 -0.048144 0.123348
					CHANNELS 3 Zrotation Yrotation Xrotation
					End Site
					{
						OFFSET 0.000000 0.000000 0.000000
					}
				}
			}
		}
	}
	JOINT Spine
	{
		OFFSET -0.002533 0.108963 -0.026696
		CHANNELS 3 Zrotation Yrotation Xrotation
		JOINT Spine1
		{
			OFFSET 0.005487 0.135180 0.001092
			CHANNELS 3 Zrotation Yrotation Xrotation
			JOINT Spine2
			{
				OFFSET 0.001457 0.052922 0.025425
				CHANNELS 3 Zrotation Yrotation Xrotation
				JOINT Neck
				{
					OFFSET -0.002778 0.213870 -0.042857
					CHANNELS 3 Zrotation Yrotation Xrotation
					JOINT Head
					{
						OFFSET 0.005152 0.064970 0.051349
						CHANNELS 3 Zrotation Yrotation Xrotation
						End Site
						{
							OFFSET 0.000000 0.000000 0.000000
						}
					}
				}
				JOINT LeftShoulder
				{
					OFFSET 0.078845 0.121749 -0.034090
					CHANNELS 3 Zrotation Yrotation Xrotation
					JOINT LeftArm
					{
						OFFSET 0.090977 0.030469 -0.008868
						CHANNELS 3 Zrotation Yrotation Xrotation
						JOINT LeftForeArm
						{
							OFFSET 0.259612 -0.012772 -0.027456
							CHANNELS 3 Zrotation Yrotation Xrotation
							JOINT LeftHand
							{
								OFFSET 0.249234 0.008986 -0.001171
								CHANNELS 3 Zrotation Yrotation Xrotation
								End Site
								{
									OFFSET 0.000000 0.000000 0.000000
								}
							}
						}
					}
				}
				JOINT RightShoulder
				{
					OFFSET -0.081759 0.118833 -0.038615
					CHANNELS 3 Zrotation Yrotation Xrotation
					JOINT RightArm
					{
						OFFSET -0.096012 0.032551 -0.009143
						CHANNELS 3 Zrotation Yrotation Xrotation
						JOINT RightForeArm
						{
							OFFSET -0.253742 -0.013329 -0.021401
							CHANNELS 3 Zrotation Yrotation Xrotation
							JOINT RightHand
							{
								OFFSET -0.255298 0.007772 -0.005559
								CHANNELS 3 Zrotation Yrotation Xrotation
								End Site
								{
									OFFSET 0.000000 0.000000 0.000000
								}
							}
						}
					}
				}
			}
		}
	}
}
MOTION
Frames: 16
Frame Time: 0.050000
0.012872 0.946435 -0.026892 3.210918 0.955526 8.896866 4.451371 -0.599027 -8.293604 -0.580946 0.049731 0.369666 -2.367635 -0.752109 8.448412 0.000000 0.000000 0.000000 -4.025323 0.781517 -9.411797 -5.741912 0.896046 3.368713 -1.582925 -6.303533 6.441539 0.000000 0.000000 0.000000 1.202691 0.247678 -5.932044 0.567917 -0.111520 -4.344951 -13.623146 6.797101 4.218380 10.468294 -4.526122 -14.656463 0.000000 0.000000 0.000000 -5.564823 -2.646558 -0.228020 -41.253276 -18.545544 1.107426 -147.770295 -45.887099 110.864345 0.000000 0.000000 0.000000 9.779934 -5.978222 -2.470625 48.392531 4.731916 -2.575602 141.227210 49.928320 119.200587 0.000000 0.000000 0.000000 
0.013165 0.946592 -0.027979 3.267260 1.545004 8.853628 4.594982 -0.615571 -8.597208 -0.727022 0.057625 0.611677 -2.675724 -1.215791 8.526780 0.000000 0.000000 0.000000 -4.194840 0.758345 -9.245074 -5.393190 0.849185 3.330689 -1.787542 -6.696738 6.446413 0.000000 0.000000 0.000000 1.166863 0.225938 -5.555995 0.733326 -0.179183 -4.247580 -14.117935 7.293567 3.748110 11.071366 -4.951346 -14.123650 0.000000 0.000000 0.000000 -4.612228 -2.404990 -0.198984 -42.092539 -18.521515 1.072421 -149.393065 -45.209144 112.150171 0.000000 0.000000 0.000000 9.444875 -6.347079 -2.549905 48.462465 3.862384 -2.812545 141.537178 50.323902 120.922411 0.000000 0.000000 0.000000 
0.013673 0.946931 -0.028743 3.358187 2.234186 8.758607 4.451445 -0.629799 -8.666962 -0.696838 0.053461 0.602992 -2.902780 -1.437245 8.773470 0.000000 0.000000 0.000000 -4.270822 0.723507 -8.861876 -5.541189 0.843088 2.991123 -2.143032 -7.494089 6.782425 0.000000 0.000000 0.000000 1.305771 0.219069 -5.458509 0.677410 -0.151004 -4.183930 -14.624894 7.978042 3.838415 11.448847 -4.959162 -14.691932 0.000000 0.000000 0.000000 -4.287181 -2.422318 -0.194972 -43.020492 -18.959702 1.166148 -149.460428 -44.306735 110.154790 0.000000 0.000000 0.000000 8.889524 -6.568156 -2.539091 48.935596 3.531763 -2.882510 140.714056 51.295759 121.716215 0.000000 0.000000 0.000000 
0.014317 0.947076 -0.029143 3.484452 2.403621 8.704881 4.418799 -0.632192 -8.675888 -0.919354 0.075660 0.650847 -2.927695 -1.518858 8.658280 0.000000 0.000000 0.000000 -4.441463 0.696963 -8.571076 -5.411185 0.801735 2.689069 -2.060171 -7.289872 6.740219 0.000000 0.000000 0.000000 1.205895 0.228408 -5.682948 0.697758 -0.166648 -3.971096 -15.007010 8.731179 3.775136 12.237846 -5.472530 -14.407130 0.000000 0.000000 0.000000 -3.749535 -2.721240 -0.029771 -43.696542 -19.133219 1.172906 -148.468773 -44.198965 107.234125 0.000000 0.000000 0.000000 8.556323 -6.768112 -2.547251 49.183755 2.638329 -3.183363 139.039022 51.971513 120.586387 0.000000 0.000000 0.000000 
0.015098 0.947145 -0.029442 3.579113 1.996472 8.799185 4.218301 -0.630149 -8.549425 -1.137576 0.108377 0.315047 -2.690866 -1.055092 8.825700 0.000000 0.000000 0.000000 -4.502087 0.718019 -8.873980 -5.781099 0.842237 2.645270 -1.953395 -7.076970 6.672591 0.000000 0.000000 0.000000 1.281419 0.251283 -6.116711 0.646445 -0.157602 -3.731277 -15.533653 9.413022 3.551398 12.518968 -5.464397 -14.913101 0.000000 0.000000 0.000000 -3.523261 -2.882759 0.045152 -44.349618 -19.335403 1.215778 -146.364067 -44.813150 103.697640 0.000000 0.000000 0.000000 8.432110 -6.747134 -2.492307 49.550248 2.367183 -3.238560 136.104868 53.782027 118.430931 0.000000 0.000000 0.000000 
0.016063 0.947464 -0.029823 3.607904 0.913410 8.409401 4.095567 -0.597152 -8.121173 -1.073575 0.098678 0.544547 -2.060519 -0.130229 8.603613 0.000000 0.000000 0.000000 -4.767825 0.714548 -8.841416 -5.815376 0.872076 2.984328 -1.353303 -5.827789 6.505531 0.000000 0.000000 0.000000 1.332738 0.264690 -6.200890 0.477598 -0.095759 -3.710151 -15.818278 9.625314 3.367030 12.585596 -5.362029 -15.530388 0.000000 0.000000 0.000000 -3.591721 -3.216495 0.161830 -44.682524 -19.871960 1.424247 -142.329778 -46.303635 99.022740 0.000000 0.000000 0.000000 9.018541 -6.750480 -2.517517 48.979322 2.316943 -3.307587 132.038509 54.993387 113.386225 0.000000 0.000000 0.000000 
0.017236 0.947753 -0.030408 3.506542 -0.649288 8.043194 3.965932 -0.553040 -7.530417 -1.062511 0.103459 0.462852 -1.205316 1.229298 8.557765 0.000000 0.000000 0.000000 -4.749415 0.739140 -8.992058 -5.941394 0.899588 3.197079 -0.693796 -4.395100 6.119413 0.000000 0.000000 0.000000 1.403819 0.285913 -6.369508 0.610203 -0.183811 -3.173675 -16.203502 9.262031 2.733757 12.522295 -5.383086 -15.596909 0.000000 0.000000 0.000000 -3.449766 -3.939048 0.495206 -44.820306 -20.961989 1.883237 -138.717673 -48.441890 96.985192 0.000000 0.000000 0.000000 9.376192 -6.033714 -2.286386 48.925440 2.452163 -3.258922 128.582622 56.364020 109.025275 0.000000 0.000000 0.000000 
0.018866 0.948112 -0.031068 3.367789 -3.119226 7.649733 3.677722 -0.509376 -6.963489 -0.648049 0.045532 1.051337 0.013117 3.027296 8.129060 0.000000 0.000000 0.000000 -4.732098 0.805374 -9.667138 -5.962714 0.961919 3.952331 0.271873 -2.219813 5.525407 0.000000 0.000000 0.000000 1.464312 0.302737 -6.335805 0.562196 -0.182885 -3.127745 -16.002205 8.341985 2.235972 12.584217 -5.458060 -16.160582 0.000000 0.000000 0.000000 -4.029560 -4.881462 0.841464 -44.207340 -22.527161 2.587708 -133.107625 -51.366889 94.332048 0.000000 0.000000 0.000000 9.657059 -5.298141 -2.166100 48.201245 2.866787 -3.138101 124.723584 56.982844 102.808711 0.000000 0.000000 0.000000 
0.020872 0.948288 -0.031636 3.070420 -6.335226 7.274980 3.437978 -0.445071 -6.110573 -0.515092 0.023351 1.529759 1.317904 4.976231 7.701131 0.000000 0.000000 0.000000 -4.611321 0.875160 -10.153107 -5.929075 0.973329 4.273495 1.218495 -0.394785 5.574227 0.000000 0.000000 0.000000 1.547438 0.324879 -6.317232 0.689591 -0.261660 -3.152783 -15.401291 6.683418 2.014725 12.441758 -5.634088 -16.308069 0.000000 0.000000 0.000000 -4.783755 -6.103705 1.407312 -43.370883 -24.522278 3.433596 -127.427325 -54.610298 93.353475 0.000000 0.000000 0.000000 9.261154 -4.885884 -2.309202 47.858775 2.695744 -3.217875 122.812264 56.762277 97.494927 0.000000 0.000000 0.000000 
0.023110 0.948072 -0.031696 2.716991 -10.057192 6.718993 3.284483 -0.354065 -4.938129 -0.317723 -0.008192 2.123987 3.209502 8.116359 7.727857 0.000000 0.000000 0.000000 -4.395586 0.959641 -10.737498 -5.846919 1.025650 5.051981 2.743281 2.875245 5.371330 0.000000 0.000000 0.000000 1.569807 0.354204 -6.353579 0.944334 -0.402648 -2.821898 -14.809237 4.509395 1.565251 11.973464 -5.551059 -16.946624 0.000000 0.000000 0.000000 -5.478639 -7.150831 2.066734 -42.199309 -26.580174 4.241263 -120.067663 -57.519213 90.507690 0.000000 0.000000 0.000000 8.857744 -4.774962 -2.630518 47.153056 1.926383 -3.495438 119.936644 56.609770 90.679537 0.000000 0.000000 0.000000 
0.025483 0.947393 -0.031437 2.253233 -13.664732 6.081600 3.122436 -0.234209 -3.313857 -0.263897 -0.002614 1.952006 4.733034 10.652015 7.828225 0.000000 0.000000 0.000000 -3.764057 1.015229 -10.863568 -6.547714 1.141836 5.341318 4.368914 6.069601 5.683865 0.000000 0.000000 0.000000 1.749733 0.364620 -6.098178 1.621506 -0.717123 -2.874018 -14.478489 2.130543 1.165361 11.869479 -5.924245 -16.504406 0.000000 0.000000 0.000000 -5.355972 -8.331694 2.901755 -42.404565 -29.256076 5.430186 -111.036021 -60.302756 85.987571 0.000000 0.000000 0.000000 7.752215 -5.380230 -3.110428 47.265383 0.545188 -4.042134 117.631073 55.738400 83.688495 0.000000 0.000000 0.000000 
0.027862 0.946956 -0.030908 1.843259 -17.971445 5.519026 2.843723 -0.144225 -2.265083 -0.197546 -0.011403 3.018023 6.585389 13.815061 7.805890 0.000000 0.000000 0.000000 -3.442711 1.100826 -11.378069 -6.626174 1.182256 5.744293 6.397164 9.851344 6.339440 0.000000 0.000000 0.000000 2.102742 0.397579 -6.035409 1.526799 -0.697062 -2.654981 -13.385158 -1.291967 0.869825 11.202133 -6.048939 -16.058471 0.000000 0.000000 0.000000 -6.286109 -9.640842 4.067486 -41.650498 -31.249224 6.207230 -100.150658 -63.317391 80.928184 0.000000 0.000000 0.000000 5.647212 -5.489746 -3.131309 48.184989 -1.095943 -4.919984 115.432480 56.658359 78.074081 0.000000 0.000000 0.000000 
0.030140 0.946298 -0.030650 1.431862 -21.672450 5.405769 2.728731 -0.055776 -1.293351 -0.323137 0.029888 3.052347 7.697509 15.620145 8.556924 0.000000 0.000000 0.000000 -2.754009 1.190815 -11.877656 -7.324794 1.249769 5.637407 8.072016 12.752558 7.052289 0.000000 0.000000 0.000000 2.268004 0.450209 -6.289367 2.382441 -1.069928 -2.856839 -13.153028 -4.036132 0.590423 11.401133 -6.640111 -14.868579 0.000000 0.000000 0.000000 -7.195840 -10.861061 5.280417 -41.837899 -33.124916 7.060605 -89.634728 -65.533406 74.887975 0.000000 0.000000 0.000000 3.963339 -7.061821 -3.464216 48.675508 -2.696587 -5.881291 113.521362 55.589092 71.322176 0.000000 0.000000 0.000000 
0.032187 0.946039 -0.030597 1.130129 -25.887069 5.039635 2.487317 0.020099 -0.591491 -0.613879 0.122030 4.050093 9.339096 18.412646 9.026412 0.000000 0.000000 0.000000 -2.330858 1.280416 -12.374299 -7.312345 1.240866 5.766066 10.408307 16.164594 8.592063 0.000000 0.000000 0.000000 2.505679 0.475530 -6.159504 2.617288 -1.172478 -2.875142 -12.376866 -6.407567 0.722084 11.200756 -6.916524 -14.023333 0.000000 0.000000 0.000000 -8.655028 -11.762217 6.689337 -39.961912 -34.716539 7.116916 -82.704320 -67.789006 72.366703 0.000000 0.000000 0.000000 2.591889 -7.501262 -3.320170 49.050890 -3.257931 -6.552876 112.507829 57.257227 69.233023 0.000000 0.000000 0.000000 
0.033981 0.945921 -0.030864 0.768464 -28.873965 4.766086 2.492530 0.097969 0.063145 -1.024035 0.244508 4.457686 10.215611 19.779573 9.696268 0.000000 0.000000 0.000000 -1.938346 1.317288 -12.507583 -7.591931 1.239555 5.601285 12.306264 18.772228 9.909152 0.000000 0.000000 0.000000 2.481407 0.481528 -6.036021 3.132914 -1.381081 -2.984686 -11.811431 -8.454029 1.048192 11.000142 -7.010386 -13.902701 0.000000 0.000000 0.000000 -8.781126 -12.491771 7.709534 -38.770807 -36.520921 7.495171 -81.345599 -70.286761 74.932334 0.000000 0.000000 0.000000 1.138062 -8.483498 -3.164970 49.004873 -3.820300 -7.235859 112.077162 57.150838 66.354042 0.000000 0.000000 0.000000 
0.035557 0.946467 -0.031071 0.463052 -32.603578 4.559498 2.250909 0.192238 0.903281 -1.342294 0.363354 4.523993 11.866354 22.225951 11.275650 0.000000 0.000000 0.000000 -1.831114 1.375651 -12.805347 -7.159024 1.157436 5.623377 14.611879 21.652406 11.632989 0.000000 0.000000 0.000000 2.822271 0.513745 -5.979357 3.206570 -1.394979 -2.872195 -11.186729 -9.448396 1.046211 10.505143 -6.934025 -13.209206 0.000000 0.000000 0.000000 -9.518124 -13.184739 8.825637 -35.858982 -36.801116 6.684233 -84.783846 -72.538622 81.415649 0.000000 0.000000 0.000000 0.495573 -8.860070 -3.072361 47.891185 -3.786009 -7.266076 113.043312 58.849696 67.706472 0.000000 0.000000 0.000000 
